<svg width="26" height="26" viewBox="0 0 26 26" fill="none" xmlns="http://www.w3.org/2000/svg">
<path fill-rule="evenodd" clip-rule="evenodd" d="M13 4.87512C8.51269 4.87512 4.875 8.5128 4.875 13.0001C4.875 17.4874 8.51269 21.1251 13 21.1251C17.4873 21.1251 21.125 17.4874 21.125 13.0001C21.125 11.7888 20.8605 10.6415 20.3868 9.61091C20.1993 9.20319 20.3779 8.72074 20.7857 8.53333C21.1934 8.34592 21.6758 8.52452 21.8632 8.93224C22.4328 10.1714 22.75 11.5498 22.75 13.0001C22.75 18.3849 18.3848 22.7501 13 22.7501C7.61522 22.7501 3.25 18.3849 3.25 13.0001C3.25 7.61534 7.61522 3.25012 13 3.25012V4.87512Z" fill="#A60303"/>
<path d="M13 7.25775V0.867476C13 0.523042 13.4017 0.334884 13.6663 0.555386L17.5005 3.75053C17.6954 3.91294 17.6954 4.21229 17.5005 4.37471L13.6663 7.56984C13.4017 7.79035 13 7.60219 13 7.25775Z" fill="#A60303"/>
</svg>
